Coordinates
version=1
nRows=14
nColumns=40
inDegrees=yes

Units are S.I. units (second, meters, Newtons, ...)
If the header above contains a line with 'inDegrees', this indicates whether rotational values are in degrees (yes) or radians (no).

endheader
time	pelvis_tilt	pelvis_list	pelvis_rotation	pelvis_tx	pelvis_ty	pelvis_tz	hip_flexion_r	hip_adduction_r	hip_rotation_r	knee_angle_r	knee_angle_r_beta	ankle_angle_r	subtalar_angle_r	mtp_angle_r	hip_flexion_l	hip_adduction_l	hip_rotation_l	knee_angle_l	knee_angle_l_beta	ankle_angle_l	subtalar_angle_l	mtp_angle_l	lumbar_extension	lumbar_bending	lumbar_rotation	arm_flex_r	arm_add_r	arm_rot_r	elbow_flex_r	pro_sup_r	wrist_flex_r	wrist_dev_r	arm_flex_l	arm_add_l	arm_rot_l	elbow_flex_l	pro_sup_l	wrist_flex_l	wrist_dev_l
      1.20000000	     -0.11728784	     -1.01447630	      0.54982799	     -0.28283335	      1.01635783	     -0.72971992	      6.08473301	      6.77757266	     -0.94616677	     11.54309224	      0.20146497	     -0.11455835	      0.00000000	      0.00000000	     10.14906236	     -0.18992156	      5.64820795	     82.52874345	      1.44039830	     -4.70604435	      0.00000000	      0.00000000	    -19.50847099	      1.57538016	      3.88968586	     80.55056519	    -17.42785362	     19.92103645	     49.98702946	     87.36239446	      0.00000000	      0.00000000	     86.24149717	     -8.04390883	     28.88076049	     42.07525076	     86.20749664	      0.00000000	      0.00000000
      1.20500000	     -0.23109527	     -1.01285046	      0.56764443	     -0.28326544	      1.01609195	     -0.72975936	      6.37779448	      6.75668366	     -1.06198171	     11.83915924	      0.20663231	     -0.08916916	      0.00000000	      0.00000000	     10.28901854	     -0.16507292	      5.71791019	     82.60262489	      1.44168778	     -4.56209437	      0.00000000	      0.00000000	    -19.43485216	      1.60936424	      3.84021359	     80.71477597	    -17.40088056	     20.08623257	     49.80328773	     87.66553512	      0.00000000	      0.00000000	     86.28385110	     -7.97098411	     28.74241794	     41.88142590	     85.21350484	      0.00000000	      0.00000000
      1.21000000	     -0.19095384	     -0.95514605	      0.52984982	     -0.28348466	      1.01614440	     -0.72965971	      6.43860633	      6.69982160	     -1.05691278	     12.03930614	      0.21012553	      0.02404760	      0.00000000	      0.00000000	     10.18418089	     -0.15153552	      5.64055020	     82.51924600	      1.44023254	     -4.73630568	      0.00000000	      0.00000000	    -19.52310495	      1.54053823	      3.81335413	     80.70664284	    -17.15176006	     19.61887253	     49.69417539	     87.47263950	      0.00000000	      0.00000000	     86.26375873	     -7.95556868	     28.24578622	     41.91979849	     86.78334268	      0.00000000	      0.00000000
      1.21500000	     -0.20812695	     -0.93837660	      0.52327264	     -0.28375489	      1.01604078	     -0.72964289	      6.53259947	      6.67962083	     -1.01037664	     12.16212468	      0.21226912	      0.09913788	      0.00000000	      0.00000000	     10.18351950	     -0.12734968	      5.65046473	     82.51402637	      1.44014144	     -4.79959607	      0.00000000	      0.00000000	    -19.53644012	      1.52824613	      3.80670905	     80.75708712	    -17.13150817	     19.58350237	     49.66886851	     87.57321497	      0.00000000	      0.00000000	     86.31973132	     -7.98168898	     28.36929989	     41.91021870	     86.55782596	      0.00000000	      0.00000000
      1.22000000	     -0.24230481	     -0.92358647	      0.54139066	     -0.28407386	      1.01591554	     -0.72962785	      6.67622486	      6.66162107	     -1.10157236	     12.34387515	      0.21544126	      0.20009958	      0.00000000	      0.00000000	     10.20840660	     -0.12263190	      5.66523408	     82.53651331	      1.44053391	     -4.80531322	      0.00000000	      0.00000000	    -19.55047031	      1.51989139	      3.76202144	     80.83390213	    -17.05021814	     19.50415796	     49.55659712	     87.60407684	      0.00000000	      0.00000000	     86.37819285	     -7.98393158	     28.34843971	     41.88084217	     86.45803803	      0.00000000	      0.00000000
      1.22500000	     -0.28703024	     -0.91880622	      0.50026107	     -0.28433909	      1.01577875	     -0.72953604	      6.79141350	      6.66362664	     -0.97752506	     12.43533119	      0.21703747	      0.17962823	      0.00000000	      0.00000000	     10.22089348	     -0.13270628	      5.63814762	     82.52899167	      1.44040263	     -4.78283744	      0.00000000	      0.00000000	    -19.54977757	      1.50549260	      3.80020374	     80.89347640	    -17.08908004	     19.60206082	     49.58821160	     87.53671606	      0.00000000	      0.00000000	     86.41468509	     -7.97743145	     28.28837801	     41.88807286	     86.64899480	      0.00000000	      0.00000000
      1.23000000	     -0.31802464	     -0.87310927	      0.50919076	     -0.28467257	      1.01564288	     -0.72952572	      6.94303978	      6.60182516	     -1.06603528	     12.64120757	      0.22063069	      0.31793123	      0.00000000	      0.00000000	     10.24974865	     -0.09318680	      5.63595324	     82.56024226	      1.44094806	     -4.79494966	      0.00000000	      0.00000000	    -19.57575054	      1.45652926	      3.77278026	     80.96452447	    -17.09192578	     19.58918150	     49.56547136	     87.64564621	      0.00000000	      0.00000000	     86.49038174	     -8.01224483	     28.44700606	     41.89005725	     86.33986812	      0.00000000	      0.00000000
      1.23500000	     -0.38732158	     -0.84260872	      0.56669226	     -0.28497768	      1.01541176	     -0.72960987	      7.18054946	      6.55116203	     -1.24116020	     12.94935203	      0.22600883	      0.45477821	      0.00000000	      0.00000000	     10.31936568	     -0.02721678	      5.74009666	     82.58642152	      1.44140497	     -4.78818152	      0.00000000	      0.00000000	    -19.54378368	      1.44127652	      3.65261620	     81.01309490	    -17.08104769	     19.68622339	     49.56769734	     87.81558235	      0.00000000	      0.00000000	     86.64262806	     -8.23418381	     29.15682425	     41.94215067	     85.35582932	      0.00000000	      0.00000000
      1.24000000	     -0.42433622	     -0.91477720	      0.52056468	     -0.28529886	      1.01528633	     -0.72946192	      7.22285931	      6.65788450	     -0.95821290	     12.88321860	      0.22485458	      0.35661911	      0.00000000	      0.00000000	     10.31720250	     -0.16161502	      5.67698231	     82.58635967	      1.44140389	     -4.74586989	      0.00000000	      0.00000000	    -19.55662082	      1.52581858	      3.75971247	     81.10561012	    -17.07276620	     19.66963544	     49.49399441	     87.51116660	      0.00000000	      0.00000000	     86.56689406	     -7.95727822	     28.22458675	     41.81940482	     86.66362140	      0.00000000	      0.00000000
      1.24500000	     -0.43708808	     -0.87141747	      0.53818194	     -0.28560207	      1.01516956	     -0.72946715	      7.38645091	      6.60057963	     -1.03656749	     13.17773179	      0.22999481	      0.58639238	      0.00000000	      0.00000000	     10.29649875	     -0.10857579	      5.72066556	     82.55163676	      1.44079786	     -4.89855762	      0.00000000	      0.00000000	    -19.61610807	      1.46751588	      3.77807022	     81.16471917	    -17.18159779	     19.71326164	     49.62360607	     87.55581030	      0.00000000	      0.00000000	     86.70114253	     -7.95338188	     28.51790335	     41.87591486	     86.19515583	      0.00000000	      0.00000000
      1.25000000	     -0.48907952	     -0.87271102	      0.53077019	     -0.28597259	      1.01496215	     -0.72943225	      7.50731851	      6.60620375	     -0.96386054	     13.24401521	      0.23115167	      0.56443813	      0.00000000	      0.00000000	     10.35923118	     -0.13106670	      5.70620985	     82.63485411	      1.44225028	     -4.84309517	      0.00000000	      0.00000000	    -19.60687676	      1.48943722	      3.74027955	     81.20992005	    -17.07843128	     19.59173000	     49.56400040	     87.57772868	      0.00000000	      0.00000000	     86.69148866	     -7.97739743	     28.29838095	     41.87125514	     86.62738171	      0.00000000	      0.00000000
      1.25500000	     -0.56034455	     -0.88255579	      0.55376402	     -0.28637700	      1.01471313	     -0.72942983	      7.71091173	      6.60902286	     -1.02386967	     13.44543134	      0.23466705	      0.62779335	      0.00000000	      0.00000000	     10.44324215	     -0.13658820	      5.74861916	     82.69820628	      1.44335599	     -4.80089091	      0.00000000	      0.00000000	    -19.58649445	      1.50577026	      3.70500165	     81.29334215	    -17.07249461	     19.66522325	     49.50617683	     87.52213133	      0.00000000	      0.00000000	     86.77665684	     -7.99068056	     28.36362894	     41.80096530	     86.69341327	      0.00000000	      0.00000000
      1.26000000	     -0.60664504	     -0.86772346	      0.57019495	     -0.28674254	      1.01450979	     -0.72941265	      7.88899027	      6.59017973	     -1.04084059	     13.66352436	      0.23847349	      0.72995819	      0.00000000	      0.00000000	     10.47729669	     -0.13477658	      5.75616759	     82.70749023	      1.44351802	     -4.87625346	      0.00000000	      0.00000000	    -19.60772234	      1.49062514	      3.68486343	     81.35468613	    -17.10089583	     19.70760045	     49.54787790	     87.53434719	      0.00000000	      0.00000000	     86.85028326	     -8.01408983	     28.47388233	     41.82183901	     86.67847203	      0.00000000	      0.00000000
      1.26500000	     -0.62104097	     -0.81932031	      0.54056205	     -0.28707747	      1.01440063	     -0.72936808	      8.02382128	      6.53981205	     -0.94167130	     13.88377093	      0.24231752	      0.90086790	      0.00000000	      0.00000000	     10.45266742	     -0.09273810	      5.72758818	     82.68307950	      1.44309197	     -4.93179491	      0.00000000	      0.00000000	    -19.65901803	      1.42932812	      3.70405861	     81.39316184	    -17.10321199	     19.58740331	     49.56029527	     87.66139861	      0.00000000	      0.00000000	     86.93561193	     -8.02239905	     28.61553900	     41.86298811	     86.25916021	      0.00000000	      0.00000000
